<?xml version="1.0" encoding="UTF-8" standalone="no"?>
<!-- Created with Inkscape (http://www.inkscape.org/) -->

<svg
   version="1.1"
   id="svg2"
   width="421.54446"
   height="423.02411"
   viewBox="0 0 421.54446 423.02411"
   sodipodi:docname="Screenshot 2023-11-10 at 18-55-00 SMASHINGLOGO Variations.png"
   xmlns:inkscape="http://www.inkscape.org/namespaces/inkscape"
   xmlns:sodipodi="http://sodipodi.sourceforge.net/DTD/sodipodi-0.dtd"
   xmlns="http://www.w3.org/2000/svg"
   xmlns:svg="http://www.w3.org/2000/svg">
  <defs
     id="defs6" />
  <sodipodi:namedview
     id="namedview4"
     pagecolor="#ffffff"
     bordercolor="#000000"
     borderopacity="0.25"
     inkscape:showpageshadow="2"
     inkscape:pageopacity="0.0"
     inkscape:pagecheckerboard="0"
     inkscape:deskcolor="#d1d1d1"
     showgrid="false" />
  <g
     inkscape:groupmode="layer"
     inkscape:label="Image"
     id="g8">
    <path
       style="fill:#923de7;stroke:none"
       d="m 193.51249,1.2229299 c -37.987,4.99014 -73.382,15.4074201 -105.000001,38.0031201 -22.6086,16.157 -41.287,36.24 -56.3079,59.572504 -53.4428,83.014996 -39.0361598,199.524996 33.3079,266.909996 45.966001,42.816 109.576001,63.27 172.000001,55.805 29.703,-3.553 58.442,-13.898 84,-29.316 21.352,-12.881 40.388,-29.683 55.65,-49.399 65.416,-84.504 58.23,-209.486 -19.65,-283.9606 -23.628,-22.5944 -52.138,-38.4562 -83,-48.7061 -24.911,-8.2732401 -54.833,-12.3463001 -81,-8.9089201 m 44,22.5756201 c 5.958,8.6411 -5.486,20.5995 -2.218,29.9846 2.493,7.1596 13.823,9.6415 18.788,3.8781 5.288,-6.1377 6.374,-20.0226 7.43,-27.8627 l 4,1 c -2.301,8.8899 -2.311,24.1135 -9.225,30.7215 -6.079,5.8106 -20.851,3.3345 -24.033,-4.7369 -3.115,-7.9025 1.029,-25.9714 5.258,-32.9846 m -65,3 12,35 h -4 l -9,-27 h -1 l -6.127,26 -4.152,8.1181 -8.721,-4.4923 -20,-14.6258 9,27 -1,1.000004 h -2 l -12,-35.000004 c 11.387,-0.0112 24.535,16.1059 34,22 1.759,-8.5216 4.619,-34.6635 13,-38 m 128,54.000004 h 1 l 14,-26.000004 h 2 l 1,1 -17,32.000004 c -4.837,-1.6003 -4.658,-6.4945 -5.414,-11.000004 -1.615,-9.6281 -3.356,-19.3186 -4.586,-29 h -1 l -14,26 h -2 l -1,-1 17,-32 c 4.792,1.5891 4.503,6.5392 5.247,11 1.611,9.6642 2.939,19.3695 4.753,29.000004 m -170,-32.000004 1,1 -1,-1 m -6,36.000004 v 2 c -9.977,1.9272 -16.932,-7.2252 -24.303,6.0038 -2.895701,5.1968 4.076,11.209196 -1.697001,14.996196 l -11,-39 37.000001,16.000004 m 216,-12.000004 2,2 v 1 c -6.865,6.865204 -17.879,24.569 -28,25 4.532,-9.717996 17.232,-21.823696 26,-28 m -248.000001,1 4,15.000004 10.000001,-9 -14.000001,-6.000004 m 112.000001,7.285504 c 15.487,-1.8273 33.296,1.5916 48,6.3842 14.996,4.8878 28.868,12.5143 41,22.615296 68.751,57.244 61.877,166.81 -15,213.904 -15.459,9.47 -33.922,15.805 -52,17.642 -39.716,4.035 -79.122,-8.828 -107.961,-36.921 -40.503201,-39.454 -50.715301,-107.877 -22.027401,-156.91 9.056401,-15.479 20.791401,-29.138 34.988401,-40.112 21.965,-16.977696 45.978,-23.414196 73,-26.602496 m 155,12.7145 17,25.999996 -4,1 -6,-11 -29,18 -1,-1 v -2 l 27,-18 v -1 l -8,-10.999996 4,-1 m -299.000001,4 2,2 v 0.999996 l -11,18 10,6 c 2.3522,-4.972 5.8944,-13.095 12,-13 -1.8722,3.957 -6.6804,8.612 -7.1188,12.96 -0.3851,3.818 6.4232,8.58 9.9089,7.018 4.6277,-2.075 8.8106,-11.668 11.2099,-15.978 h 2 l 1,1 -13,22 -31,-19 c 2.4164,-7.633 8.1029,-16.596 14,-21.999996 m 79.000001,21.999996 v 1 l 49,-21.999996 c -14.991,-3.4248 -37.441,13.201996 -49,20.999996 m 94,-21.999996 v 1 l 49,21.999996 v -1 c -14.912,-10.679 -30.982,-18.281 -49,-21.999996 m -30,2.464996 c -25.014,4.509 -50.844,22.362 -74,32.674 -10.423,4.642 -22.444,8.862 -27.672,19.861 -4.195101,8.826 -2.328001,20.468 -2.328001,30 v 62 c 0,10.618 -1.6683,22.098 5.390001,30.996 6.002,7.565 16.048,11.049 24.61,14.865 12.392,5.523 24.605,11.476 37,17 16.339,7.282 33.269,19.052 52,15.674 25.025,-4.512 50.842,-22.353 74,-32.674 10.506,-4.682 22.39,-8.748 27.672,-19.861 4.195,-8.826 2.328,-20.468 2.328,-30 v -62 c 0,-10.622 1.665,-22.092 -5.39,-30.996 -6.07,-7.661 -15.955,-11.008 -24.61,-14.865 -12.395,-5.524 -24.604,-11.476 -37,-17 -16.339,-7.282 -33.269,-19.051596 -52,-15.674 m 182,37.535 c 1.041,8.038 -7.277,16.044 -12,22 6.566,2.136 19.293,4.096 22,11 l -24,-7.298 -16,3.298 13.826,-8.51 16.174,-20.49 m -349.000001,3 2,1 -4,14 32,9 -1,4 -32,-10 c -1.0946,4.731 -1.9925,11.257 -7,13 1.2441,-9.231 4.3931,-23.505 10,-31 m 94.001001,14.409 c 7.029,-1.439 14.841,4.329 20.999,7.015 12.773,5.573 25.272,11.765 38,17.437 6.128,2.731 12.133,6.713 19,7.096 19.93,1.11 44.041,-16.545 62,-24.381 7.49,-3.269 17.866,-11.378 25.786,-4.923 7.633,6.22 3.903,16.518 -3.787,20.304 -13.151,6.474 -26.564,12.757 -39.999,18.619 -8.286,3.615 -18.552,6.657 -24.812,13.467 -5.896,6.416 -5.188,13.841 -5.188,21.957 v 43 c 0,8.631 1.585,21.104 -10,22.63 -11.882,1.565 -13,-10.006 -13,-18.63 v -41 c 0,-6.564 1.273,-14.712 -0.854,-21 -3.254,-9.619 -12.85,-12.865 -21.146,-16.781 -16.172,-7.633 -34.97,-13.527 -49.985,-23.213 -8.369,-5.399 -7.822,-19.385 2.986,-21.597 m -54.001001,58.591 c 0,16.839 3.558,33.447 10.0116,49 6.7526,16.274 16.787401,31.344 29.078401,43.961 65.751,67.494 179.285,43.444 218.204,-39.961 7.733,-16.572 11.706,-34.748 11.706,-53 h 73 c -0.217,26.259 -6.037,52.668 -15.8,77 -8.892,22.16 -22.071,41.995 -37.625,60 -60.22,69.709 -167.579,87.259 -248.575,45.741 -40.355001,-20.686 -72.302401,-54.18 -92.243801,-94.741 -13.3279,-27.109 -20.1345098,-57.88 -20.7561998,-88 H 76.512489 m -18,28 4,14 c -7.5279,1.742 -29.5023,5.29 -32,13 l 33,-10 4,14 h 2 l 1,-1 -9,-30 h -3 m 302.000001,0 c -0.825,7.891 7.76,15.766 12,22 -6.807,1.575 -19.78,3.62 -22,11 l 25,-7.965 15,3.965 v -4 c -16.609,-3.842 -18.03,-15.255 -30,-25 m -32,69 2,1 h 1 l 7,-12 27,19 h 1 l 2,-3 c -5.651,-4.048 -23.874,-12.211 -25.462,-19.093 -0.844,-3.659 3.949,-8.709 5.462,-11.907 -7.75,-0.121 -17.812,19.135 -20,26 m -282.000001,-7 13,22 h 2 l 1,-1 -12,-18 v -1 c 12.1574,-6.472 14.1854,-5.287 21,7 l 3,-1 -9,-16 11,-6 c 2.5628,5.417 7.3593,16.104 14,16 l -13,-21 -31,19 m 93.000001,-1 v 1 c 14.912,10.679 30.982,18.281 49,22 v -1 l -49,-22 m 94,22 v 1 c 18.018,-3.719 34.088,-11.321 49,-22 l -14,5 -35,16 m 83,-3 -2,2 v 1 l 25,26 h 1 l 2,-2 v -1 l -26,-26 m -241.000001,21 v 2 l 1,1 c 7.4676,-2.058 22.7289,-6.947 24.637001,6.464 0.759,5.339 -4.174301,8.806 0.363,13.536 3.111,-10.962 12.782,-28.866 10,-40 l -36.000001,17 m 32.000001,-11 -4,15 -10.000001,-9 14.000001,-6 m 190,5 15,27 -38,-14 -1,1 17,32 4,-1 -15,-27 c 9.589,4.484 28.562,15.168 39,13 l -17,-32 -4,1 m -160,9 c -3.279,6.224 -15.291,31.324 -9,36 l 10,-28 9,35 c 10.911,-2.171 22.391,-14.168 31,-21 l -9,29 c 8.138,-2.832 11.981,-26.175 15,-34 -10.994,-2.451 -25.389,16.213 -35,21 -1.604,-11.913 -4.606,-27.256 -10,-38 h -2 m 117,12 c 0.665,8.361 7.164,20.963 4.243,28.995 -2.638,7.253 -13.681,10.028 -18.733,3.872 -5.276,-6.431 -6.427,-19.823 -7.51,-27.867 h -3 c 0.179,8.635 1.976,23.946 7.649,30.786 5.721,6.9 21.271,4.664 24.609,-3.801 3.513,-8.911 -1.8,-23.24 -4.258,-31.985 z"
       id="path293" />
  </g>
</svg>
